<svg width="1694" height="858" viewBox="0 0 1694 858" fill="none" xmlns="http://www.w3.org/2000/svg">
<path d="M365.613 93.439C365.744 88.8839 371.926 87.6116 373.846 91.7447L377.612 99.8578C378.301 101.341 379.77 102.309 381.405 102.356L390.346 102.613C394.901 102.744 396.173 108.927 392.04 110.846L383.927 114.613C382.443 115.301 381.476 116.77 381.429 118.405L381.172 127.346C381.041 131.901 374.858 133.173 372.939 129.04L369.172 120.927C368.483 119.443 367.015 118.476 365.38 118.429L356.439 118.172C351.884 118.041 350.612 111.858 354.745 109.939L362.858 106.172C364.341 105.483 365.308 104.015 365.355 102.38L365.613 93.439Z" fill="#F0DB1E"/>
<path d="M1260.9 538.125C1263.17 534.173 1269.22 535.974 1268.96 540.524L1268.44 549.454C1268.35 551.087 1269.18 552.633 1270.6 553.448L1278.36 557.901C1282.31 560.17 1280.51 566.219 1275.96 565.957L1267.03 565.441C1265.4 565.347 1263.85 566.183 1263.04 567.602L1258.58 575.359C1256.31 579.311 1250.26 577.51 1250.53 572.96L1251.04 564.03C1251.14 562.397 1250.3 560.851 1248.88 560.036L1241.12 555.583C1237.17 553.314 1238.97 547.264 1243.52 547.527L1252.45 548.043C1254.09 548.137 1255.63 547.301 1256.45 545.882L1260.9 538.125Z" fill="#F0DB1E"/>
<path d="M1646.64 6.23908C1648.41 2.62022 1653.85 3.85069 1653.89 7.87757L1653.96 15.782C1653.98 17.2276 1654.8 18.5414 1656.1 19.1756L1663.21 22.6434C1666.83 24.4101 1665.6 29.8508 1661.57 29.8883L1653.66 29.962C1652.22 29.9754 1650.9 30.8046 1650.27 32.1037L1646.8 39.2072C1645.04 42.8261 1639.6 41.5956 1639.56 37.5687L1639.48 29.6643C1639.47 28.2187 1638.64 26.9049 1637.34 26.2707L1630.24 22.8029C1626.62 21.0362 1627.85 15.5955 1631.88 15.5579L1639.78 15.4843C1641.23 15.4709 1642.54 14.6417 1643.18 13.3426L1646.64 6.23908Z" fill="white"/>
<path d="M1655.06 673.056C1654.35 670.948 1656.96 669.317 1658.54 670.884L1661.64 673.96C1662.21 674.522 1663.05 674.716 1663.81 674.46L1667.94 673.061C1670.05 672.348 1671.68 674.963 1670.12 676.543L1667.04 679.645C1666.48 680.212 1666.28 681.049 1666.54 681.805L1667.94 685.944C1668.65 688.052 1666.04 689.684 1664.46 688.117L1661.36 685.041C1660.79 684.478 1659.95 684.284 1659.19 684.54L1655.06 685.94C1652.95 686.653 1651.32 684.037 1652.88 682.457L1655.96 679.355C1656.52 678.788 1656.72 677.952 1656.46 677.195L1655.06 673.056Z" fill="white"/>
<path d="M1252.74 844.548C1250.78 843.497 1251.57 840.518 1253.8 840.581L1258.17 840.706C1258.96 840.728 1259.71 840.298 1260.09 839.594L1262.15 835.743C1263.2 833.782 1266.18 834.575 1266.12 836.8L1265.99 841.166C1265.97 841.965 1266.4 842.708 1267.1 843.085L1270.95 845.148C1272.91 846.2 1272.12 849.179 1269.9 849.115L1265.53 848.991C1264.73 848.968 1263.99 849.398 1263.61 850.103L1261.55 853.953C1260.5 855.914 1257.52 855.121 1257.58 852.897L1257.71 848.53C1257.73 847.731 1257.3 846.989 1256.59 846.611L1252.74 844.548Z" fill="white"/>
<path d="M214.879 340.517C212.936 339.431 213.781 336.467 216.004 336.569L220.368 336.77C221.166 336.807 221.916 336.389 222.306 335.692L224.437 331.878C225.522 329.936 228.487 330.781 228.384 333.004L228.183 337.368C228.146 338.166 228.564 338.916 229.261 339.306L233.075 341.437C235.018 342.522 234.172 345.487 231.949 345.384L227.585 345.183C226.787 345.146 226.037 345.564 225.647 346.261L223.517 350.075C222.431 352.017 219.467 351.172 219.569 348.949L219.77 344.585C219.807 343.787 219.39 343.037 218.692 342.647L214.879 340.517Z" fill="white"/>
<path d="M572.194 651.976C570.477 650.56 571.841 647.795 574.009 648.295L578.266 649.276C579.045 649.455 579.858 649.179 580.366 648.563L583.147 645.194C584.563 643.477 587.328 644.841 586.828 647.009L585.847 651.266C585.668 652.045 585.944 652.858 586.56 653.366L589.929 656.147C591.646 657.563 590.282 660.328 588.114 659.828L583.857 658.847C583.078 658.668 582.265 658.944 581.757 659.56L578.976 662.929C577.56 664.646 574.795 663.282 575.295 661.114L576.276 656.857C576.455 656.078 576.179 655.265 575.563 654.757L572.194 651.976Z" fill="#F0DB1E"/>
<path d="M5.1935 23.9763C3.477 22.5598 4.84054 19.7951 7.00919 20.2948L11.2661 21.2757C12.0446 21.455 12.8576 21.1791 13.3661 20.5629L16.1465 17.1935C17.563 15.477 20.3277 16.8406 19.828 19.0092L18.8472 23.2661C18.6678 24.0446 18.9437 24.8577 19.5599 25.3661L22.9293 28.1465C24.6458 29.563 23.2822 32.3277 21.1136 31.828L16.8567 30.8472C16.0782 30.6678 15.2652 30.9438 14.7567 31.5599L11.9763 34.9293C10.5598 36.6458 7.7951 35.2823 8.29479 33.1136L9.27563 28.8567C9.455 28.0782 9.17905 27.2652 8.56287 26.7567L5.1935 23.9763Z" fill="#F0DB1E"/>
<path d="M1103.98 122.821C1101.91 122.005 1102.35 118.954 1104.57 118.759L1108.92 118.375C1109.72 118.305 1110.41 117.791 1110.7 117.047L1112.3 112.983C1113.12 110.913 1116.17 111.354 1116.36 113.571L1116.75 117.923C1116.82 118.719 1117.33 119.406 1118.08 119.699L1122.14 121.301C1124.21 122.117 1123.77 125.168 1121.55 125.364L1117.2 125.748C1116.4 125.818 1115.72 126.332 1115.42 127.075L1113.82 131.139C1113.01 133.21 1109.95 132.768 1109.76 130.551L1109.38 126.2C1109.3 125.404 1108.79 124.716 1108.05 124.423L1103.98 122.821Z" fill="#F0DB1E"/>
<path d="M1672.61 303.45C1670.39 303.277 1669.91 300.231 1671.98 299.394L1676.02 297.751C1676.76 297.45 1677.27 296.757 1677.33 295.961L1677.67 291.605C1677.85 289.387 1680.89 288.914 1681.73 290.976L1683.37 295.024C1683.67 295.764 1684.37 296.271 1685.16 296.333L1689.52 296.673C1691.74 296.846 1692.21 299.892 1690.15 300.729L1686.1 302.372C1685.36 302.673 1684.85 303.366 1684.79 304.162L1684.45 308.518C1684.28 310.736 1681.23 311.209 1680.39 309.147L1678.75 305.099C1678.45 304.359 1677.76 303.852 1676.96 303.79L1672.61 303.45Z" fill="#F0DB1E"/>
<path d="M724.027 31.0228C723.314 28.9146 725.929 27.2828 727.51 28.8499L730.611 31.926C731.179 32.4885 732.015 32.6822 732.772 32.4263L736.91 31.0269C739.018 30.314 740.65 32.9293 739.083 34.5095L736.007 37.6113C735.444 38.1785 735.251 39.015 735.506 39.7718L736.906 43.91C737.619 46.0182 735.003 47.65 733.423 46.0829L730.321 43.0068C729.754 42.4443 728.918 42.2506 728.161 42.5065L724.023 43.9059C721.915 44.6188 720.283 42.0035 721.85 40.4233L724.926 37.3215C725.489 36.7543 725.682 35.9178 725.426 35.161L724.027 31.0228Z" fill="white"/>
<path d="M61.5661 622.11C61.7463 618.087 67.2273 617.05 68.8645 620.73L72.0783 627.952C72.666 629.272 73.9496 630.148 75.3938 630.212L83.2907 630.566C87.3137 630.746 88.3505 636.227 84.6713 637.864L77.4493 641.078C76.1285 641.666 75.2533 642.95 75.1886 644.394L74.8348 652.291C74.6545 656.314 69.1736 657.35 67.5363 653.671L64.3225 646.449C63.7348 645.129 62.4512 644.253 61.007 644.189L53.1102 643.835C49.0871 643.655 48.0503 638.174 51.7295 636.536L58.9515 633.323C60.2723 632.735 61.1475 631.451 61.2122 630.007L61.5661 622.11Z" fill="white"/>
</svg>
