<svg width="246" height="247" viewBox="0 0 246 247" fill="none" xmlns="http://www.w3.org/2000/svg">
<g id="Mask group">
<mask id="mask0_15_276" style="mask-type:alpha" maskUnits="userSpaceOnUse" x="10" y="10" width="226" height="227">
<circle id="Ellipse 139" cx="123.07" cy="123.471" r="112.661" fill="#AAAAAA"/>
</mask>
<g mask="url(#mask0_15_276)">
<path id="Vector 39" d="M86.2247 72.4549C48.5294 76.7063 6.74807 62.1808 -9.43068 54.3867L-45.2129 106.466C-17.6972 117.567 42.4358 140.051 62.8423 141.185C119.881 144.354 158.852 94.4203 199.948 86.6261C232.826 80.3908 258.523 89.2242 267.261 94.4203V38.0898C222.622 47.7735 123.92 68.2036 86.2247 72.4549Z" fill="#616161"/>
<path id="Vector 40" d="M202.982 125.129C228.207 118.894 244.197 131.742 249.039 138.946V178.979C211.013 214.407 131.631 280.303 118.31 260.464C101.658 235.664 108.39 205.55 118.31 186.773C128.229 167.997 171.452 132.923 202.982 125.129Z" fill="#616161"/>
<ellipse id="Ellipse 147" cx="74.8879" cy="104.694" rx="30.468" ry="15.234" fill="#AAAAAA"/>
<ellipse id="Ellipse 148" cx="130.51" cy="89.8146" rx="15.9426" ry="8.14842" fill="#AAAAAA"/>
<ellipse id="Ellipse 149" cx="91.8933" cy="15.4158" rx="71.5644" ry="25.8624" transform="rotate(-11.5002 91.8933 15.4158)" fill="#616161"/>
</g>
</g>
</svg>
