<svg width="271" height="271" viewBox="0 0 271 271" fill="none" xmlns="http://www.w3.org/2000/svg">
<g id="Mask group">
<mask id="mask0_15_283" style="mask-type:alpha" maskUnits="userSpaceOnUse" x="10" y="10" width="251" height="251">
<circle id="Ellipse 139" cx="125.017" cy="125.017" r="125.017" transform="matrix(-1 0 0 1 260.564 10.8142)" fill="#AAAAAA"/>
</mask>
<g mask="url(#mask0_15_283)">
<path id="Vector 39" d="M176.433 79.2199C218.263 83.9375 264.627 67.8189 282.58 59.1699L322.287 116.961C291.753 129.279 225.025 154.23 202.38 155.488C139.085 159.005 95.8404 103.594 50.2367 94.9453C13.7537 88.0261 -14.7618 97.8283 -24.4591 103.594V41.0857C25.076 51.8314 134.604 74.5022 176.433 79.2199Z" fill="#7C4DFF"/>
<path id="Vector 40" d="M46.8706 137.671C18.8793 130.752 1.1358 145.01 -4.23706 153.003V197.428C37.9595 236.741 126.048 309.864 140.83 287.849C159.307 260.329 151.838 226.913 140.83 206.077C129.822 185.24 81.8597 146.32 46.8706 137.671Z" fill="#7C4DFF"/>
<ellipse id="Ellipse 147" cx="33.8097" cy="16.9048" rx="33.8097" ry="16.9048" transform="matrix(-1 0 0 1 222.823 98.0903)" fill="#AAAAAA"/>
<ellipse id="Ellipse 148" cx="17.6911" cy="9.04212" rx="17.6911" ry="9.04212" transform="matrix(-1 0 0 1 144.982 89.4414)" fill="#AAAAAA"/>
<ellipse id="Ellipse 149" cx="79.4134" cy="28.6989" rx="79.4134" ry="28.6989" transform="matrix(-0.979924 -0.199371 -0.199371 0.979924 253.684 3.63477)" fill="#7C4DFF"/>
</g>
</g>
</svg>
