<svg width="124" height="124" viewBox="0 0 124 124" fill="none" xmlns="http://www.w3.org/2000/svg">
<g id="Mask group">
<mask id="mask0_15_218" style="mask-type:alpha" maskUnits="userSpaceOnUse" x="0" y="0" width="124" height="124">
<circle id="Ellipse 136" cx="62.0347" cy="62.0347" r="61.962" fill="#5098F0"/>
</mask>
<g mask="url(#mask0_15_218)">
<path id="Vector 26" d="M82.9796 29.2211C91.3576 31.7345 101.83 18.0505 106.019 10.8943L128.36 29.2211C122.426 35.8536 110.103 50.0263 108.288 53.6568C106.019 58.1948 65.7001 48.0715 60.8129 41.6135C55.9258 35.1555 72.5072 26.0793 82.9796 29.2211Z" fill="#4158D1"/>
<path id="Vector 27" d="M24.8577 52.9585C18.295 46.2561 2.10921 47.8386 -5.16332 49.4677L-7.25781 79.8378C4.02916 95.6046 27.5456 127.348 31.3157 128.186C36.0283 129.233 60.2895 96.0701 59.2422 90.3102C58.195 84.5504 38.821 89.9612 31.3157 79.8378C23.8104 69.7144 33.0611 61.3365 24.8577 52.9585Z" fill="#4158D1"/>
<g id="Vector 28">
<path d="M41.0899 8.97442C46.396 5.76287 49.7006 0.771003 50.6897 -1.32349L25.3812 4.6109L7.229 24.334C10.1962 25.0322 16.724 26.603 19.0978 27.3012C22.065 28.1739 34.4574 12.9889 41.0899 8.97442Z" fill="white"/>
<path d="M90.834 112.128C95.1627 110.732 100.201 111.546 102.179 112.128L92.5795 127.313H70.7619C72.2164 124.87 75.2999 119.633 75.9981 118.237C76.8708 116.492 85.4233 113.873 90.834 112.128Z" fill="white"/>
</g>
</g>
</g>
</svg>
