<svg width="1917" height="979" viewBox="0 0 1917 979" fill="none" xmlns="http://www.w3.org/2000/svg">
<mask id="mask0_15_171" style="mask-type:alpha" maskUnits="userSpaceOnUse" x="0" y="0" width="1920" height="979">
<path d="M268.133 178.52C198.734 176.124 60.4613 58.5083 0 0V955L1920 979V161.746C1788.36 184.71 1503.61 227.164 1417.71 213.266C1310.33 195.893 1224.8 77.2788 1179.3 77.2788C1133.8 77.2788 1082.24 116.218 1055.55 113.222C1028.85 110.227 1009.44 77.2788 967.583 77.2788C925.725 77.2788 925.118 129.996 912.379 139.581C899.64 149.166 880.227 137.784 839.583 145.572C798.938 153.36 778.313 178.52 742.521 178.52C706.73 178.52 686.104 87.4628 636.967 77.2788C587.829 67.0948 354.882 181.515 268.133 178.52Z" fill="url(#paint0_linear_15_171)" fill-opacity="0.6"/>
</mask>
<g mask="url(#mask0_15_171)">
<circle cx="956.5" cy="-1137.5" r="1862.5" fill="url(#paint1_linear_15_171)" fill-opacity="0.4"/>
</g>
<defs>
<linearGradient id="paint0_linear_15_171" x1="960" y1="97.5" x2="960" y2="979" gradientUnits="userSpaceOnUse">
<stop stop-color="#1E6D9B"/>
<stop offset="1" stop-color="#231866"/>
</linearGradient>
<linearGradient id="paint1_linear_15_171" x1="956.5" y1="-3000" x2="956.5" y2="725" gradientUnits="userSpaceOnUse">
<stop offset="0.846162" stop-color="#2679B8"/>
<stop offset="1" stop-color="#24145B"/>
</linearGradient>
</defs>
</svg>
