<svg width="1917" height="942" viewBox="0 0 1917 942"  fill="none" xmlns="http://www.w3.org/2000/svg">
<mask id="mask0_15_168" style="mask-type:alpha" maskUnits="userSpaceOnUse" x="0" y="0" width="1919" height="942">
<path d="M254.427 199.627C203.061 214.494 63.4066 155.865 0 124.692V941.5H1919V667.5V144.475C1857.99 96.3167 1718.7 0 1649.57 0C1563.16 0 1417.95 121.695 1356.14 125.891C1294.33 130.087 1281.13 58.7492 1248.73 60.5476C1216.33 62.3461 1194.12 151.669 1162.92 155.865C1131.72 160.062 1053.71 89.3227 1032.71 93.5191C1011.71 97.7155 1006.9 111.504 990.103 111.504C973.301 111.504 960.1 43.1627 932.497 40.1653C904.894 37.1679 901.294 75.5347 886.892 82.7284C872.491 89.9222 851.489 83.3279 831.087 89.3227C810.685 95.3176 798.683 106.708 780.681 111.504C762.68 116.299 731.476 124.093 675.67 101.312C619.865 78.5321 573.66 0 492.651 0C411.643 0 318.633 181.043 254.427 199.627Z" fill="url(#paint0_linear_15_168)" fill-opacity="0.6"/>
</mask>
<g mask="url(#mask0_15_168)">
<circle cx="956.5" cy="-1112.5" r="1862.5" fill="url(#paint1_linear_15_168)" fill-opacity="0.6"/>
</g>
<defs>
<linearGradient id="paint0_linear_15_168" x1="959.5" y1="0" x2="959.5" y2="941.5" gradientUnits="userSpaceOnUse">
<stop stop-color="#3B4BAC"/>
<stop offset="1" stop-color="#25145E"/>
</linearGradient>
<linearGradient id="paint1_linear_15_168" x1="956.5" y1="-2975" x2="956.5" y2="750" gradientUnits="userSpaceOnUse">
<stop offset="0.776754" stop-color="#3A58B4"/>
<stop offset="1" stop-color="#210F50"/>
</linearGradient>
</defs>
</svg>
