<svg width="19" height="19" viewBox="0 0 19 19" fill="none" xmlns="http://www.w3.org/2000/svg">
<path id="Star 10" d="M3.06058 3.05648C2.34766 0.948287 4.96302 -0.6835 6.5432 0.883594L9.64497 3.95968C10.2122 4.52223 11.0487 4.71594 11.8055 4.46001L15.9437 3.0606C18.0519 2.34768 19.6837 4.96303 18.1166 6.54321L15.0405 9.64499C14.4779 10.2122 14.2842 11.0487 14.5402 11.8055L15.9396 15.9437C16.6525 18.0519 14.0371 19.6837 12.457 18.1166L9.35518 15.0405C8.78793 14.478 7.95149 14.2842 7.19469 14.5402L3.05647 15.9396C0.948271 16.6525 -0.683516 14.0371 0.883577 12.457L3.95966 9.35519C4.52221 8.78794 4.71592 7.9515 4.46 7.19471L3.06058 3.05648Z" fill="white"/>
</svg>
