<svg width="24" height="25" viewBox="0 0 24 25" fill="none" xmlns="http://www.w3.org/2000/svg">
<path id="Star 10" opacity="0.8" d="M15.9381 1.42681C18.3179 -0.668489 21.9456 1.6839 21.0035 4.71151L19.4099 9.83263C19.0587 10.9613 19.371 12.191 20.2179 13.0141L22.9488 15.6683C25.4109 18.0612 22.788 22.106 19.5989 20.8343L16.0616 19.4237C14.9645 18.9863 13.7144 19.2028 12.8272 19.9839L8.80172 23.5281C6.42185 25.6234 2.79419 23.271 3.73632 20.2433L5.3299 15.1222C5.68111 13.9936 5.36877 12.7638 4.52186 11.9407L1.791 9.28659C-0.671106 6.89366 1.95175 2.84891 5.14093 4.1206L8.67823 5.53111C9.77524 5.96855 11.0254 5.75203 11.9126 4.97094L15.9381 1.42681Z" fill="white"/>
</svg>
