<svg width="43" height="43" viewBox="0 0 43 43" fill="none" xmlns="http://www.w3.org/2000/svg">
<path id="Star 8" d="M22.901 3.12479C25.1699 -0.827166 31.2194 0.974354 30.9566 5.5237L30.4408 14.4537C30.3465 16.0868 31.1831 17.633 32.6018 18.4475L40.3591 22.9011C44.3111 25.1699 42.5096 31.2195 37.9602 30.9567L29.0302 30.4409C27.3971 30.3465 25.8509 31.1831 25.0364 32.6018L20.5829 40.3592C18.314 44.3112 12.2644 42.5096 12.5272 37.9603L13.0431 29.0303C13.1374 27.3971 12.3008 25.8509 10.8821 25.0365L3.12474 20.5829C-0.827219 18.3141 0.974301 12.2645 5.52365 12.5273L14.4537 13.0431C16.0868 13.1375 17.633 12.3008 18.4475 10.8822L22.901 3.12479Z" fill="#F0DB1E"/>
</svg>
