<svg width="36" height="38" viewBox="0 0 36 38" fill="none" xmlns="http://www.w3.org/2000/svg">
<path id="Star 7" opacity="0.8" d="M10.2143 5.1038C10.4031 0.76364 16.1706 -0.587643 18.2677 3.21696L21.8148 9.65236C22.5965 11.0706 24.108 11.9293 25.7251 11.8739L30.9395 11.695C35.6407 11.5338 37.1474 17.9644 32.8638 19.9083L28.1126 22.0643C26.6392 22.733 25.6664 24.1737 25.5961 25.7916L25.2767 33.1329C25.088 37.473 19.3204 38.8243 17.2234 35.0197L13.6763 28.5843C12.8946 27.166 11.3831 26.3073 9.76599 26.3628L4.55159 26.5416C-0.149659 26.7028 -1.65631 20.2722 2.62728 18.3284L7.37845 16.1723C8.85191 15.5037 9.82465 14.063 9.89502 12.4451L10.2143 5.1038Z" fill="white"/>
</svg>
