<svg width="22" height="22" viewBox="0 0 22 22" fill="none" xmlns="http://www.w3.org/2000/svg">
<path id="Star 14" d="M1.9836 11.8214C-0.0868645 11.0054 0.354623 7.95447 2.57149 7.75883L6.92302 7.37482C7.71882 7.30459 8.40662 6.79069 8.69956 6.04744L10.3014 1.98328C11.1174 -0.0871788 14.1683 0.354309 14.364 2.57117L14.748 6.9227C14.8182 7.71851 15.3321 8.4063 16.0754 8.69925L20.1395 10.3011C22.21 11.1171 21.7685 14.168 19.5516 14.3636L15.2001 14.7477C14.4043 14.8179 13.7165 15.3318 13.4235 16.075L11.8217 20.1392C11.0057 22.2097 7.95478 21.7682 7.75915 19.5513L7.37513 15.1998C7.30491 14.404 6.79101 13.7162 6.04776 13.4232L1.9836 11.8214Z" fill="#F0DB1E"/>
</svg>
