<svg width="20" height="20" viewBox="0 0 20 20" fill="none" xmlns="http://www.w3.org/2000/svg">
<path id="Star 13" d="M1.1935 7.97631C-0.522998 6.55984 0.840539 3.79514 3.00919 4.29482L7.2661 5.27566C8.0446 5.45504 8.85762 5.17909 9.3661 4.5629L12.1465 1.19354C13.563 -0.522962 16.3277 0.840575 15.828 3.00923L14.8472 7.26614C14.6678 8.04464 14.9437 8.85766 15.5599 9.36614L18.9293 12.1465C20.6458 13.563 19.2822 16.3277 17.1136 15.828L12.8567 14.8472C12.0782 14.6678 11.2652 14.9438 10.7567 15.5599L7.97627 18.9293C6.55981 20.6458 3.7951 19.2823 4.29479 17.1136L5.27563 12.8567C5.455 12.0782 5.17905 11.2652 4.56287 10.7567L1.1935 7.97631Z" fill="#F0DB1E"/>
</svg>
