<svg width="22" height="22" viewBox="0 0 22 22" fill="none" xmlns="http://www.w3.org/2000/svg">
<path id="Star 12" d="M1.87866 10.5165C-0.0641593 9.43107 0.781144 6.46656 3.00426 6.56899L7.36808 6.77004C8.16613 6.80681 8.91644 6.38945 9.30609 5.69202L11.4368 1.87843C12.5222 -0.0643857 15.4867 0.780918 15.3843 3.00404L15.1833 7.36785C15.1465 8.1659 15.5638 8.91621 16.2613 9.30587L20.0749 11.4365C22.0177 12.522 21.1724 15.4865 18.9493 15.3841L14.5854 15.183C13.7874 15.1463 13.0371 15.5636 12.6474 16.261L10.5167 20.0746C9.43129 22.0175 6.46679 21.1721 6.56921 18.949L6.77027 14.5852C6.80703 13.7872 6.38968 13.0369 5.69225 12.6472L1.87866 10.5165Z" fill="white"/>
</svg>
