<svg width="22" height="22" viewBox="0 0 22 22" fill="none" xmlns="http://www.w3.org/2000/svg">
<path id="Star 17" d="M1.74336 10.5478C-0.218197 9.4966 0.574971 6.51772 2.79955 6.58113L7.16621 6.7056C7.96479 6.72837 8.70766 6.29791 9.08502 5.59375L11.1485 1.74337C12.1997 -0.218189 15.1786 0.57498 15.1151 2.79955L14.9907 7.16622C14.9679 7.9648 15.3984 8.70767 16.1025 9.08503L19.9529 11.1485C21.9145 12.1997 21.1213 15.1786 18.8967 15.1152L14.5301 14.9907C13.7315 14.9679 12.9886 15.3984 12.6112 16.1025L10.5478 19.9529C9.49659 21.9145 6.51771 21.1213 6.58112 18.8967L6.70559 14.5301C6.72836 13.7315 6.2979 12.9886 5.59374 12.6113L1.74336 10.5478Z" fill="white"/>
</svg>
