<svg width="22" height="22" viewBox="0 0 22 22" fill="none" xmlns="http://www.w3.org/2000/svg">
<path id="Star 15" d="M2.60535 14.4501C0.386615 14.2771 -0.0859073 11.2308 1.97614 10.3938L6.02379 8.75065C6.76402 8.45016 7.27089 7.75717 7.33302 6.96069L7.67272 2.60548C7.84578 0.386738 10.892 -0.0857829 11.7291 1.97627L13.3722 6.02391C13.6727 6.76415 14.3657 7.27102 15.1622 7.33314L19.5174 7.67284C21.7361 7.8459 22.2086 10.8921 20.1466 11.7292L16.0989 13.3723C15.3587 13.6728 14.8518 14.3658 14.7897 15.1623L14.45 19.5175C14.277 21.7362 11.2307 22.2088 10.3936 20.1467L8.75052 16.0991C8.45003 15.3588 7.75704 14.852 6.96056 14.7898L2.60535 14.4501Z" fill="#F0DB1E"/>
</svg>
