<svg width="43" height="43" viewBox="0 0 43 43" fill="none" xmlns="http://www.w3.org/2000/svg">
<path id="Star 6" d="M13.6128 4.43896C13.7439 -0.116087 19.9265 -1.38841 21.8455 2.74473L25.6125 10.8578C26.3014 12.3415 27.7696 13.3085 29.4047 13.3556L38.3459 13.6129C42.901 13.744 44.1733 19.9266 40.0402 21.8456L31.9271 25.6126C30.4434 26.3015 29.4764 27.7696 29.4293 29.4048L29.172 38.346C29.0409 42.901 22.8583 44.1734 20.9393 40.0402L17.1723 31.9272C16.4834 30.4435 15.0152 29.4764 13.3801 29.4294L4.43889 29.1721C-0.116154 29.041 -1.38848 22.8584 2.74466 20.9393L10.8577 17.1724C12.3414 16.4835 13.3084 15.0153 13.3555 13.3802L13.6128 4.43896Z" fill="#F0DB1E"/>
</svg>
