<svg width="38" height="38" viewBox="0 0 38 38" fill="none" xmlns="http://www.w3.org/2000/svg">
<path id="Star 9" d="M12.5661 4.11013C12.7463 0.0871075 18.2273 -0.949701 19.8645 2.72951L23.0783 9.95152C23.666 11.2723 24.9496 12.1475 26.3938 12.2122L34.2907 12.566C38.3137 12.7463 39.3505 18.2272 35.6713 19.8645L28.4493 23.0783C27.1285 23.666 26.2533 24.9496 26.1886 26.3938L25.8348 34.2907C25.6545 38.3137 20.1736 39.3505 18.5363 35.6713L15.3225 28.4493C14.7348 27.1285 13.4512 26.2533 12.007 26.1886L4.11015 25.8348C0.0871318 25.6545 -0.949677 20.1736 2.72954 18.5363L9.95155 15.3225C11.2723 14.7348 12.1475 13.4512 12.2122 12.007L12.5661 4.11013Z" fill="white"/>
</svg>
