<svg width="38" height="38" viewBox="0 0 38 38" fill="none" xmlns="http://www.w3.org/2000/svg">
<path id="Star 7" d="M18.6434 2.23908C20.4101 -1.37978 25.8508 -0.149307 25.8883 3.87757L25.9619 11.782C25.9754 13.2276 26.8046 14.5414 28.1037 15.1756L35.2072 18.6434C38.826 20.4101 37.5956 25.8508 33.5687 25.8883L25.6642 25.962C24.2187 25.9754 22.9048 26.8046 22.2706 28.1037L18.8028 35.2072C17.0362 38.8261 11.5954 37.5956 11.5579 33.5687L11.4843 25.6643C11.4708 24.2187 10.6417 22.9049 9.34257 22.2707L2.23905 18.8029C-1.3798 17.0362 -0.149333 11.5955 3.87755 11.5579L11.782 11.4843C13.2276 11.4709 14.5414 10.6417 15.1756 9.3426L18.6434 2.23908Z" fill="white"/>
</svg>
