<svg width="19" height="19" viewBox="0 0 19 19" fill="none" xmlns="http://www.w3.org/2000/svg">
<path id="Star 11" d="M3.02689 3.02279C2.31397 0.914596 4.92932 -0.717191 6.5095 0.849902L9.61128 3.92599C10.1785 4.48854 11.015 4.68224 11.7718 4.42632L15.91 3.02691C18.0182 2.31399 19.65 4.92934 18.0829 6.50952L15.0068 9.61129C14.4442 10.1785 14.2505 11.015 14.5065 11.7718L15.9059 15.91C16.6188 18.0182 14.0034 19.65 12.4233 18.0829L9.32149 15.0068C8.75424 14.4443 7.9178 14.2506 7.161 14.5065L3.02278 15.9059C0.91458 16.6188 -0.717207 14.0035 0.849886 12.4233L3.92597 9.3215C4.48852 8.75425 4.68223 7.91781 4.4263 7.16102L3.02689 3.02279Z" fill="white"/>
</svg>
