<svg width="24" height="25" viewBox="0 0 24 25" fill="none" xmlns="http://www.w3.org/2000/svg">
<path id="Star 8" opacity="0.8" d="M15.5948 1.2603C17.9747 -0.834993 21.6023 1.5174 20.6602 4.54501L19.0666 9.66613C18.7154 10.7948 19.0278 12.0245 19.8747 12.8476L22.6055 15.5018C25.0676 17.8947 22.4448 21.9395 19.2556 20.6678L15.7183 19.2572C14.6213 18.8198 13.3711 19.0363 12.4839 19.8174L8.45845 23.3616C6.07859 25.4568 2.45092 23.1045 3.39305 20.0768L4.98664 14.9557C5.33785 13.8271 5.02551 12.5973 4.1786 11.7742L1.44774 9.12009C-1.01437 6.72715 1.60848 2.6824 4.79767 3.9541L8.33497 5.36461C9.43198 5.80205 10.6822 5.58552 11.5693 4.80444L15.5948 1.2603Z" fill="white"/>
</svg>
