<svg width="27" height="28" viewBox="0 0 27 28" fill="none" xmlns="http://www.w3.org/2000/svg">
<path id="Union" fill-rule="evenodd" clip-rule="evenodd" d="M21.3069 4.50745C21.9431 3.28206 21.4655 1.77292 20.2402 1.13668C19.0148 0.500452 17.5056 0.978055 16.8694 2.20344L8.42016 18.4767L5.00189 7.67554C4.58529 6.35917 3.18045 5.62977 1.86409 6.04636C0.547722 6.46295 -0.181685 7.8678 0.23491 9.18416L5.3651 25.3946L6.11941 27.7781L8.5029 27.0238L8.83111 26.92C8.84223 26.9165 8.85332 26.913 8.86439 26.9094L24.7134 21.8936C26.0298 21.477 26.7592 20.0722 26.3426 18.7558C25.926 17.4395 24.5211 16.7101 23.2048 17.1267L13.0934 20.3266L21.3069 4.50745Z" fill="white"/>
</svg>
