<svg width="28" height="28" viewBox="0 0 28 28" fill="none" xmlns="http://www.w3.org/2000/svg">
<path id="Union" fill-rule="evenodd" clip-rule="evenodd" d="M22.1619 4.36218C22.7981 3.1368 22.3205 1.62765 21.0951 0.991421C19.8697 0.355188 18.3606 0.832792 17.7244 2.05818L9.27514 18.3314L5.85687 7.53027C5.44027 6.21391 4.03543 5.4845 2.71907 5.9011C1.4027 6.31769 0.673295 7.72253 1.08989 9.03889L6.22008 25.2494L6.97439 27.6329L9.35788 26.8786L9.68609 26.7747C9.69721 26.7713 9.7083 26.7677 9.71937 26.7642L25.5684 21.7484C26.8847 21.3318 27.6141 19.9269 27.1975 18.6106C26.781 17.2942 25.3761 16.5648 24.0597 16.9814L13.9484 20.1814L22.1619 4.36218Z" fill="white"/>
</svg>
