<svg width="84" height="107" viewBox="0 0 84 107" fill="none" xmlns="http://www.w3.org/2000/svg">
<g id="Vector 23">
<path d="M68.7714 86.7467C67.6414 92.8227 51.3508 102.781 43.3468 107C36.4413 103.361 47.5842 86.7467 47.5842 79.7845C47.5842 72.8223 36.7552 72.1894 30.6344 67.4424C24.5137 62.6955 31.2622 43.866 38.9524 40.7014C46.6426 37.5368 62.1799 48.2965 64.0632 51.6193C65.9465 54.9422 83.681 59.3727 83.9948 64.7525C84.3087 70.1324 70.1839 79.1516 68.7714 86.7467Z" fill="#78DA55"/>
<path d="M21.061 23.4542C16.0388 26.1125 18.9684 33.8447 21.061 37.3785C15.2541 39.5938 2.54178 35.1633 0.344592 28.834C-1.8526 22.5048 6.62229 10.6375 21.061 3.20059C35.4996 -4.23627 47.5842 2.88413 49.7814 8.42222C51.9786 13.9603 27.3387 20.1313 21.061 23.4542Z" fill="#78DA55"/>
</g>
</svg>
